<?xml version="1.0" standalone="no"?>
<!DOCTYPE svg PUBLIC "-//W3C//DTD SVG 20010904//EN"
 "http://www.w3.org/TR/2001/REC-SVG-20010904/DTD/svg10.dtd">
<svg version="1.0" xmlns="http://www.w3.org/2000/svg"
 width="260.000000pt" height="260.000000pt" viewBox="0 0 260.000000 260.000000"
 preserveAspectRatio="xMidYMid meet">
<metadata>
Created by potrace 1.11, written by Peter Selinger 2001-2013
</metadata>
<g transform="translate(0.000000,260.000000) scale(0.100000,-0.100000)"
fill="#000000" stroke="none">
<path d="M800 2255 c0 -4 22 -31 48 -61 27 -30 68 -85 93 -124 46 -73 46 -73
105 -49 42 17 73 7 118 -38 143 -141 83 -324 -163 -491 -221 -152 -534 -341
-618 -375 -22 -9 -70 -34 -106 -56 -36 -22 -85 -49 -109 -61 -23 -12 -71 -38
-105 -58 l-63 -37 0 -223 0 -223 77 42 c43 24 118 68 168 98 328 199 413 249
520 301 135 66 267 111 399 136 108 20 315 15 416 -12 69 -18 184 -67 194 -82
3 -5 -11 -30 -31 -56 -22 -28 -33 -50 -27 -56 5 -4 59 -20 119 -35 184 -44
525 -158 718 -240 29 -12 20 10 -51 117 -38 57 -122 191 -187 298 -112 185
-233 370 -241 370 -2 0 -16 -18 -30 -40 l-27 -40 -65 36 c-88 47 -239 98 -337
113 -44 7 -86 15 -93 17 -8 2 4 24 33 59 54 67 77 111 100 189 23 79 17 204
-13 266 -31 63 -101 141 -167 184 -61 41 -69 60 -29 70 15 4 24 9 22 11 -19
20 -668 68 -668 50z"/>
</g>
</svg>
